#!OML:ASF F:\VICON\USERDATA\INSTALL\rory7\rory7.ASF
:FULLY-SPECIFIED
:DEGREES
207
root -0.0677123 18.8367 4.02839 -3.92737 -4.36313 0.456994
lowerback 5.43656 2.33298 -1.99599
upperback 0.398384 2.92666 -2.10727
thorax -2.62484 1.46923 -1.27353
lowerneck -8.60808 -4.52749 -6.87324
upperneck 11.6897 -6.51588 9.93416
head 5.48476 -2.85184 3.75398
rclavicle 2.83144e-014 -2.14687e-014
rhumerus 25.7331 20.7332 -54.0485
rradius 126.87
rwrist -10.9545
rhand -37.7734 -0.758329
rfingers 7.12502
rthumb -10.8207 -30.4596
lclavicle 2.83144e-014 -2.14687e-014
lhumerus -32.5164 11.4095 72.9713
lradius 21.9394
lwrist -8.50468
lhand -23.131 22.167
lfingers 7.12502
lthumb 3.31662 52.1209
rfemur 0 0 0
rtibia 0
rfoot 0 0
rtoes 0
lfemur 6.95422 -10.4189 -19.2282
ltibia 10.1642
lfoot -12.8481 21.2491
ltoes -3.92511
208
root -0.0636959 18.8367 4.02687 -3.94274 -4.37061 0.462743
lowerback 5.42941 2.33585 -1.95817
upperback 0.397039 2.93191 -2.14951
thorax -2.61809 1.47124 -1.33816
lowerneck -8.62348 -4.49836 -6.81476
upperneck 11.4805 -6.46367 9.91179
head 5.4156 -2.8282 3.74081
rclavicle 6.62512e-015 -1.59028e-014
rhumerus 26.3712 20.3982 -53.6945
rradius 126.826
rwrist -10.7575
rhand -37.949 0.590602
rfingers 7.12502
rthumb -10.9901 -29.1017
lclavicle 6.62512e-015 -1.59028e-014
lhumerus -32.5771 11.5203 72.8484
lradius 21.8834
lwrist -8.80324
lhand -22.991 22.4579
lfingers 7.12502
lthumb 3.4518 52.4097
rfemur 0 0 0
rtibia 0
rfoot 0 0
rtoes 0
lfemur 6.98106 -10.3993 -19.2481
ltibia 10.1339
lfoot -12.8253 21.2313
ltoes -4.05519
209
root -0.0604823 18.8367 4.02522 -3.96801 -4.38296 0.417645
lowerback 5.44812 2.3386 -1.88854
upperback 0.397073 2.93905 -2.15591
thorax -2.62461 1.47403 -1.38497
lowerneck -8.68565 -4.468 -6.78338
upperneck 11.3143 -6.40523 9.87544
head 5.36768 -2.80154 3.72751
rclavicle -3.8266e-014 4.29375e-014
rhumerus 27.1254 20.1023 -53.2674
rradius 126.779
rwrist -10.6709
rhand -38.3721 1.79527
rfingers 7.12502
rthumb -11.3981 -27.8749
lclavicle -3.8266e-014 4.29375e-014
lhumerus -32.6032 11.7166 72.7296
lradius 21.8078
lwrist -9.10503
lhand -22.7175 22.8098
lfingers 7.12502
lthumb 3.71587 52.7572
rfemur 0 0 0
rtibia 0
rfoot 0 0
rtoes 0
lfemur 7.01199 -10.419 -19.2168
ltibia 10.135
lfoot -12.8335 21.2678
ltoes -4.32049
210
root -0.0567045 18.8371 4.02291 -3.94436 -4.39308 0.443008
lowerback 5.43095 2.346 -1.88577
upperback 0.386714 2.94872 -2.18105
thorax -2.62415 1.47872 -1.41262
lowerneck -8.85703 -4.44769 -6.81309
upperneck 11.2268 -6.36017 9.89256
head 5.36769 -2.77624 3.73848
rclavicle -2.22949e-014 -2.62396e-014
rhumerus 27.654 19.7951 -52.8468
rradius 126.69
rwrist -10.5008
rhand -38.804 2.81989
rfingers 7.12502
rthumb -11.8146 -26.8268
lclavicle -2.22949e-014 -2.62396e-014
lhumerus -32.6192 11.7745 72.6893
lradius 21.808
lwrist -8.95255
lhand -22.4958 22.8964
lfingers 7.12502
lthumb 3.93002 52.8399
rfemur 0 0 0
rtibia 0
rfoot 0 0
rtoes 0
lfemur 6.9515 -10.4344 -19.2574
ltibia 10.1814
lfoot -12.8047 21.3249
ltoes -4.42958
211
root -0.0527947 18.839 4.0184 -3.8791 -4.39592 0.461742
lowerback 5.42426 2.35568 -1.85063
upperback 0.345956 2.96148 -2.23322
thorax -2.65779 1.48454 -1.48783
lowerneck -9.03099 -4.44689 -6.74459
upperneck 11.1615 -6.34573 9.82505
head 5.37178 -2.76667 3.70377
rclavicle 9.38015e-016 -1.74931e-014
rhumerus 27.9601 19.3982 -52.5794
rradius 126.683
rwrist -10.1602
rhand -38.7842 2.76913
rfingers 7.12502
rthumb -11.7955 -26.8787
lclavicle 9.38015e-016 -1.74931e-014
lhumerus -32.6408 11.6935 72.6746
lradius 21.7959
lwrist -8.71185
lhand -22.4932 22.6822
lfingers 7.12502
lthumb 3.93249 52.6257
rfemur 0 0 0
rtibia 0
rfoot 0 0
rtoes 0
lfemur 6.84102 -10.4608 -19.2763
ltibia 10.2264
lfoot -12.8464 21.3267
ltoes -4.15256
